<mxfile host="Electron" modified="2023-11-01T17:21:10.397Z" agent="Mozilla/5.0 (Windows NT 10.0; Win64; x64) AppleWebKit/537.36 (KHTML, like Gecko) draw.io/22.0.3 Chrome/114.0.5735.289 Electron/25.8.4 Safari/537.36" etag="QrQOvpqvVwDc0J-V86QO" version="22.0.3" type="device">
  <diagram name="Page-1" id="2a216829-ef6e-dabb-86c1-c78162f3ba2b">
    <mxGraphModel dx="2707" dy="1140" grid="1" gridSize="10" guides="1" tooltips="1" connect="1" arrows="1" fold="1" page="1" pageScale="1" pageWidth="850" pageHeight="1100" background="none" math="0" shadow="0">
      <root>
        <mxCell id="0" />
        <mxCell id="1" parent="0" />
        <mxCell id="Ux-1qo4_dbEG4EfTb58z-3" value="Lichess.org&lt;br style=&quot;font-size: 16px;&quot;&gt;" style="swimlane;startSize=20;horizontal=0;html=1;whiteSpace=wrap;fontSize=16;" parent="1" vertex="1">
          <mxGeometry x="-500" y="400" width="1360" height="120" as="geometry">
            <mxRectangle x="500" y="1060" width="40" height="100" as="alternateBounds" />
          </mxGeometry>
        </mxCell>
        <mxCell id="Ux-1qo4_dbEG4EfTb58z-12" value="" style="points=[[0.145,0.145,0],[0.5,0,0],[0.855,0.145,0],[1,0.5,0],[0.855,0.855,0],[0.5,1,0],[0.145,0.855,0],[0,0.5,0]];shape=mxgraph.bpmn.event;html=1;verticalLabelPosition=bottom;labelBackgroundColor=#ffffff;verticalAlign=top;align=center;perimeter=ellipsePerimeter;outlineConnect=0;aspect=fixed;outline=standard;symbol=message;fontSize=16;" parent="Ux-1qo4_dbEG4EfTb58z-3" vertex="1">
          <mxGeometry x="705" y="38" width="50" height="50" as="geometry" />
        </mxCell>
        <mxCell id="Ux-1qo4_dbEG4EfTb58z-14" style="edgeStyle=orthogonalEdgeStyle;rounded=0;orthogonalLoop=1;jettySize=auto;html=1;fontSize=16;" parent="Ux-1qo4_dbEG4EfTb58z-3" source="Ux-1qo4_dbEG4EfTb58z-12" target="Ux-1qo4_dbEG4EfTb58z-44" edge="1">
          <mxGeometry relative="1" as="geometry">
            <mxPoint x="800" y="63" as="targetPoint" />
          </mxGeometry>
        </mxCell>
        <mxCell id="Ux-1qo4_dbEG4EfTb58z-23" value="Отправка информации" style="points=[[0.25,0,0],[0.5,0,0],[0.75,0,0],[1,0.25,0],[1,0.5,0],[1,0.75,0],[0.75,1,0],[0.5,1,0],[0.25,1,0],[0,0.75,0],[0,0.5,0],[0,0.25,0]];shape=mxgraph.bpmn.task;whiteSpace=wrap;rectStyle=rounded;size=10;html=1;container=1;expand=0;collapsible=0;taskMarker=send;fontSize=16;" parent="Ux-1qo4_dbEG4EfTb58z-3" vertex="1">
          <mxGeometry x="960" y="23" width="120" height="80" as="geometry" />
        </mxCell>
        <mxCell id="Ux-1qo4_dbEG4EfTb58z-13" value="Запрос получен" style="text;html=1;align=center;verticalAlign=middle;resizable=0;points=[];autosize=1;strokeColor=none;fillColor=none;fontSize=16;" parent="Ux-1qo4_dbEG4EfTb58z-3" vertex="1">
          <mxGeometry x="660" y="8" width="140" height="30" as="geometry" />
        </mxCell>
        <mxCell id="Ux-1qo4_dbEG4EfTb58z-46" style="edgeStyle=orthogonalEdgeStyle;rounded=0;orthogonalLoop=1;jettySize=auto;html=1;fontSize=16;" parent="Ux-1qo4_dbEG4EfTb58z-3" source="Ux-1qo4_dbEG4EfTb58z-44" target="Ux-1qo4_dbEG4EfTb58z-23" edge="1">
          <mxGeometry relative="1" as="geometry" />
        </mxCell>
        <mxCell id="Ux-1qo4_dbEG4EfTb58z-44" value="Получение информации об активности шахматиста" style="html=1;whiteSpace=wrap;rounded=1;fontSize=16;" parent="Ux-1qo4_dbEG4EfTb58z-3" vertex="1">
          <mxGeometry x="800" y="23" width="120" height="80" as="geometry" />
        </mxCell>
        <mxCell id="Ux-1qo4_dbEG4EfTb58z-45" value="" style="shape=mxgraph.bpmn.timer_start;perimeter=ellipsePerimeter;html=1;labelPosition=right;labelBackgroundColor=#ffffff;align=left;fontSize=16;" parent="Ux-1qo4_dbEG4EfTb58z-44" vertex="1">
          <mxGeometry x="1" width="30" height="30" relative="1" as="geometry">
            <mxPoint x="-15" y="10" as="offset" />
          </mxGeometry>
        </mxCell>
        <mxCell id="Ux-1qo4_dbEG4EfTb58z-4" value="Пользователь" style="swimlane;startSize=20;horizontal=0;html=1;whiteSpace=wrap;fontSize=16;" parent="1" vertex="1">
          <mxGeometry x="-500" y="560" width="1750" height="220" as="geometry">
            <mxRectangle x="500" y="1060" width="40" height="100" as="alternateBounds" />
          </mxGeometry>
        </mxCell>
        <mxCell id="Ux-1qo4_dbEG4EfTb58z-5" value="Вход на сайт" style="points=[[0.145,0.145,0],[0.5,0,0],[0.855,0.145,0],[1,0.5,0],[0.855,0.855,0],[0.5,1,0],[0.145,0.855,0],[0,0.5,0]];shape=mxgraph.bpmn.event;html=1;verticalLabelPosition=bottom;labelBackgroundColor=#ffffff;verticalAlign=top;align=center;perimeter=ellipsePerimeter;outlineConnect=0;aspect=fixed;outline=standard;symbol=general;fontSize=16;" parent="Ux-1qo4_dbEG4EfTb58z-4" vertex="1">
          <mxGeometry x="40" y="84" width="50" height="50" as="geometry" />
        </mxCell>
        <mxCell id="Ux-1qo4_dbEG4EfTb58z-7" value="Переход на страницу клуба" style="points=[[0.25,0,0],[0.5,0,0],[0.75,0,0],[1,0.25,0],[1,0.5,0],[1,0.75,0],[0.75,1,0],[0.5,1,0],[0.25,1,0],[0,0.75,0],[0,0.5,0],[0,0.25,0]];shape=mxgraph.bpmn.task;whiteSpace=wrap;rectStyle=rounded;size=10;html=1;container=1;expand=0;collapsible=0;taskMarker=abstract;fontSize=16;" parent="Ux-1qo4_dbEG4EfTb58z-4" vertex="1">
          <mxGeometry x="430" y="117.88000000000022" width="120" height="80" as="geometry" />
        </mxCell>
        <mxCell id="Ux-1qo4_dbEG4EfTb58z-10" value="Выбор участника для получения активности" style="points=[[0.25,0,0],[0.5,0,0],[0.75,0,0],[1,0.25,0],[1,0.5,0],[1,0.75,0],[0.75,1,0],[0.5,1,0],[0.25,1,0],[0,0.75,0],[0,0.5,0],[0,0.25,0]];shape=mxgraph.bpmn.task;whiteSpace=wrap;rectStyle=rounded;size=10;html=1;container=1;expand=0;collapsible=0;taskMarker=send;fontSize=16;" parent="Ux-1qo4_dbEG4EfTb58z-4" vertex="1">
          <mxGeometry x="670" y="67.88" width="120" height="80" as="geometry" />
        </mxCell>
        <mxCell id="Ux-1qo4_dbEG4EfTb58z-28" value="Ожидание&lt;br&gt;информации" style="points=[[0.145,0.145,0],[0.5,0,0],[0.855,0.145,0],[1,0.5,0],[0.855,0.855,0],[0.5,1,0],[0.145,0.855,0],[0,0.5,0]];shape=mxgraph.bpmn.event;html=1;verticalLabelPosition=bottom;labelBackgroundColor=#ffffff;verticalAlign=top;align=center;perimeter=ellipsePerimeter;outlineConnect=0;aspect=fixed;outline=standard;symbol=timer;fontSize=16;" parent="Ux-1qo4_dbEG4EfTb58z-4" vertex="1">
          <mxGeometry x="835" y="82.88000000000022" width="50" height="50" as="geometry" />
        </mxCell>
        <mxCell id="Ux-1qo4_dbEG4EfTb58z-27" style="edgeStyle=orthogonalEdgeStyle;rounded=0;orthogonalLoop=1;jettySize=auto;html=1;fontSize=16;" parent="Ux-1qo4_dbEG4EfTb58z-4" source="Ux-1qo4_dbEG4EfTb58z-10" target="Ux-1qo4_dbEG4EfTb58z-28" edge="1">
          <mxGeometry relative="1" as="geometry">
            <mxPoint x="865" y="107.88000000000022" as="targetPoint" />
          </mxGeometry>
        </mxCell>
        <mxCell id="Ux-1qo4_dbEG4EfTb58z-29" style="edgeStyle=orthogonalEdgeStyle;rounded=0;orthogonalLoop=1;jettySize=auto;html=1;fontSize=16;" parent="Ux-1qo4_dbEG4EfTb58z-4" source="Ux-1qo4_dbEG4EfTb58z-28" target="Ux-1qo4_dbEG4EfTb58z-52" edge="1">
          <mxGeometry relative="1" as="geometry">
            <mxPoint x="1000" y="107.88" as="targetPoint" />
          </mxGeometry>
        </mxCell>
        <mxCell id="Ux-1qo4_dbEG4EfTb58z-35" value="Перенос информации в хранилище" style="points=[[0.25,0,0],[0.5,0,0],[0.75,0,0],[1,0.25,0],[1,0.5,0],[1,0.75,0],[0.75,1,0],[0.5,1,0],[0.25,1,0],[0,0.75,0],[0,0.5,0],[0,0.25,0]];shape=mxgraph.bpmn.task;whiteSpace=wrap;rectStyle=rounded;size=10;html=1;container=1;expand=0;collapsible=0;taskMarker=manual;fontSize=16;" parent="Ux-1qo4_dbEG4EfTb58z-4" vertex="1">
          <mxGeometry x="1140" y="67.88000000000022" width="120" height="80" as="geometry" />
        </mxCell>
        <mxCell id="Ux-1qo4_dbEG4EfTb58z-51" value="" style="shape=mxgraph.bpmn.timer_start;perimeter=ellipsePerimeter;html=1;labelPosition=right;labelBackgroundColor=#ffffff;align=left;fontSize=16;" parent="Ux-1qo4_dbEG4EfTb58z-35" vertex="1">
          <mxGeometry x="104" y="9.999999999999773" width="30" height="30" as="geometry" />
        </mxCell>
        <mxCell id="Ux-1qo4_dbEG4EfTb58z-34" style="edgeStyle=orthogonalEdgeStyle;rounded=0;orthogonalLoop=1;jettySize=auto;html=1;fontSize=16;" parent="Ux-1qo4_dbEG4EfTb58z-4" source="Ux-1qo4_dbEG4EfTb58z-52" target="Ux-1qo4_dbEG4EfTb58z-35" edge="1">
          <mxGeometry relative="1" as="geometry">
            <mxPoint x="1116" y="107.88000000000022" as="targetPoint" />
            <mxPoint x="1050" y="107.88" as="sourcePoint" />
          </mxGeometry>
        </mxCell>
        <mxCell id="Ux-1qo4_dbEG4EfTb58z-47" value="Анализ&lt;br style=&quot;font-size: 16px;&quot;&gt;полученных данных" style="points=[[0.25,0,0],[0.5,0,0],[0.75,0,0],[1,0.25,0],[1,0.5,0],[1,0.75,0],[0.75,1,0],[0.5,1,0],[0.25,1,0],[0,0.75,0],[0,0.5,0],[0,0.25,0]];shape=mxgraph.bpmn.task;whiteSpace=wrap;rectStyle=rounded;size=10;html=1;container=1;expand=0;collapsible=0;taskMarker=manual;fontSize=16;" parent="Ux-1qo4_dbEG4EfTb58z-4" vertex="1">
          <mxGeometry x="1505" y="67.88000000000022" width="120" height="80" as="geometry" />
        </mxCell>
        <mxCell id="Ux-1qo4_dbEG4EfTb58z-48" value="" style="shape=mxgraph.bpmn.timer_start;perimeter=ellipsePerimeter;html=1;labelPosition=right;labelBackgroundColor=#ffffff;align=left;fontSize=16;" parent="Ux-1qo4_dbEG4EfTb58z-47" vertex="1">
          <mxGeometry x="102" y="9.999999999999773" width="30" height="30" as="geometry" />
        </mxCell>
        <mxCell id="Ux-1qo4_dbEG4EfTb58z-50" value="Анализ активности&lt;br style=&quot;font-size: 16px;&quot;&gt;игроков завершен" style="points=[[0.145,0.145,0],[0.5,0,0],[0.855,0.145,0],[1,0.5,0],[0.855,0.855,0],[0.5,1,0],[0.145,0.855,0],[0,0.5,0]];shape=mxgraph.bpmn.event;html=1;verticalLabelPosition=bottom;labelBackgroundColor=#ffffff;verticalAlign=top;align=center;perimeter=ellipsePerimeter;outlineConnect=0;aspect=fixed;outline=end;symbol=terminate;fontSize=16;" parent="Ux-1qo4_dbEG4EfTb58z-4" vertex="1">
          <mxGeometry x="1665" y="82.88000000000022" width="50" height="50" as="geometry" />
        </mxCell>
        <mxCell id="Ux-1qo4_dbEG4EfTb58z-49" style="edgeStyle=orthogonalEdgeStyle;rounded=0;orthogonalLoop=1;jettySize=auto;html=1;fontSize=16;" parent="Ux-1qo4_dbEG4EfTb58z-4" source="Ux-1qo4_dbEG4EfTb58z-47" target="Ux-1qo4_dbEG4EfTb58z-50" edge="1">
          <mxGeometry relative="1" as="geometry">
            <mxPoint x="1645" y="107.88000000000022" as="targetPoint" />
          </mxGeometry>
        </mxCell>
        <mxCell id="Ux-1qo4_dbEG4EfTb58z-52" value="Получение информации" style="points=[[0.25,0,0],[0.5,0,0],[0.75,0,0],[1,0.25,0],[1,0.5,0],[1,0.75,0],[0.75,1,0],[0.5,1,0],[0.25,1,0],[0,0.75,0],[0,0.5,0],[0,0.25,0]];shape=mxgraph.bpmn.task;whiteSpace=wrap;rectStyle=rounded;size=10;html=1;container=1;expand=0;collapsible=0;taskMarker=receive;fontSize=16;" parent="Ux-1qo4_dbEG4EfTb58z-4" vertex="1">
          <mxGeometry x="965" y="67.88" width="120" height="80" as="geometry" />
        </mxCell>
        <mxCell id="Ux-1qo4_dbEG4EfTb58z-37" value="" style="points=[[0.25,0.25,0],[0.5,0,0],[0.75,0.25,0],[1,0.5,0],[0.75,0.75,0],[0.5,1,0],[0.25,0.75,0],[0,0.5,0]];shape=mxgraph.bpmn.gateway2;html=1;verticalLabelPosition=bottom;labelBackgroundColor=#ffffff;verticalAlign=top;align=center;perimeter=rhombusPerimeter;outlineConnect=0;outline=none;symbol=none;gwType=exclusive;fontSize=16;" parent="Ux-1qo4_dbEG4EfTb58z-4" vertex="1">
          <mxGeometry x="1300" y="82.88000000000022" width="50" height="50" as="geometry" />
        </mxCell>
        <mxCell id="Ux-1qo4_dbEG4EfTb58z-36" style="edgeStyle=orthogonalEdgeStyle;rounded=0;orthogonalLoop=1;jettySize=auto;html=1;fontSize=16;" parent="Ux-1qo4_dbEG4EfTb58z-4" source="Ux-1qo4_dbEG4EfTb58z-35" target="Ux-1qo4_dbEG4EfTb58z-37" edge="1">
          <mxGeometry relative="1" as="geometry">
            <mxPoint x="1325" y="107.88000000000022" as="targetPoint" />
          </mxGeometry>
        </mxCell>
        <mxCell id="Ux-1qo4_dbEG4EfTb58z-39" value="" style="edgeStyle=elbowEdgeStyle;fontSize=16;html=1;endArrow=blockThin;endFill=1;startArrow=dash;startFill=0;endSize=6;startSize=6;rounded=0;" parent="Ux-1qo4_dbEG4EfTb58z-4" source="Ux-1qo4_dbEG4EfTb58z-37" target="Ux-1qo4_dbEG4EfTb58z-47" edge="1">
          <mxGeometry width="160" relative="1" as="geometry">
            <mxPoint x="1375" y="107.44999999999993" as="sourcePoint" />
            <mxPoint x="1495" y="107.88" as="targetPoint" />
          </mxGeometry>
        </mxCell>
        <mxCell id="Ux-1qo4_dbEG4EfTb58z-40" value="Информация о всех&lt;br style=&quot;font-size: 16px;&quot;&gt;игроках получена" style="edgeLabel;html=1;align=center;verticalAlign=middle;resizable=0;points=[];labelBackgroundColor=none;fontSize=16;" parent="Ux-1qo4_dbEG4EfTb58z-39" vertex="1" connectable="0">
          <mxGeometry x="-0.511" y="2" relative="1" as="geometry">
            <mxPoint x="33" as="offset" />
          </mxGeometry>
        </mxCell>
        <mxCell id="Ux-1qo4_dbEG4EfTb58z-41" style="edgeStyle=orthogonalEdgeStyle;rounded=0;orthogonalLoop=1;jettySize=auto;html=1;exitX=0.5;exitY=0;exitDx=0;exitDy=0;exitPerimeter=0;fontSize=16;" parent="Ux-1qo4_dbEG4EfTb58z-4" source="Ux-1qo4_dbEG4EfTb58z-37" target="f8lgZIH35mIWPdJog5Zn-9" edge="1">
          <mxGeometry relative="1" as="geometry">
            <mxPoint x="310" y="-40" as="targetPoint" />
            <Array as="points">
              <mxPoint x="1325" y="-20" />
              <mxPoint x="215" y="-20" />
            </Array>
          </mxGeometry>
        </mxCell>
        <mxCell id="Ux-1qo4_dbEG4EfTb58z-42" value="Информация не о всех игроках получена" style="edgeLabel;html=1;align=center;verticalAlign=middle;resizable=0;points=[];fontSize=16;" parent="Ux-1qo4_dbEG4EfTb58z-41" vertex="1" connectable="0">
          <mxGeometry x="-0.9017" y="-3" relative="1" as="geometry">
            <mxPoint y="13" as="offset" />
          </mxGeometry>
        </mxCell>
        <mxCell id="f8lgZIH35mIWPdJog5Zn-2" value="" style="points=[[0.25,0.25,0],[0.5,0,0],[0.75,0.25,0],[1,0.5,0],[0.75,0.75,0],[0.5,1,0],[0.25,0.75,0],[0,0.5,0]];shape=mxgraph.bpmn.gateway2;html=1;verticalLabelPosition=bottom;labelBackgroundColor=#ffffff;verticalAlign=top;align=center;perimeter=rhombusPerimeter;outlineConnect=0;outline=end;symbol=general;" vertex="1" parent="Ux-1qo4_dbEG4EfTb58z-4">
          <mxGeometry x="330" y="85" width="50" height="50" as="geometry" />
        </mxCell>
        <mxCell id="f8lgZIH35mIWPdJog5Zn-17" style="edgeStyle=orthogonalEdgeStyle;rounded=0;orthogonalLoop=1;jettySize=auto;html=1;" edge="1" parent="Ux-1qo4_dbEG4EfTb58z-4" source="f8lgZIH35mIWPdJog5Zn-14" target="Ux-1qo4_dbEG4EfTb58z-10">
          <mxGeometry relative="1" as="geometry" />
        </mxCell>
        <mxCell id="f8lgZIH35mIWPdJog5Zn-14" value="" style="points=[[0.25,0.25,0],[0.5,0,0],[0.75,0.25,0],[1,0.5,0],[0.75,0.75,0],[0.5,1,0],[0.25,0.75,0],[0,0.5,0]];shape=mxgraph.bpmn.gateway2;html=1;verticalLabelPosition=bottom;labelBackgroundColor=#ffffff;verticalAlign=top;align=center;perimeter=rhombusPerimeter;outlineConnect=0;outline=end;symbol=general;" vertex="1" parent="Ux-1qo4_dbEG4EfTb58z-4">
          <mxGeometry x="580" y="84" width="50" height="50" as="geometry" />
        </mxCell>
        <mxCell id="f8lgZIH35mIWPdJog5Zn-3" style="edgeStyle=orthogonalEdgeStyle;rounded=0;orthogonalLoop=1;jettySize=auto;html=1;exitX=0.5;exitY=1;exitDx=0;exitDy=0;exitPerimeter=0;" edge="1" parent="Ux-1qo4_dbEG4EfTb58z-4" source="f8lgZIH35mIWPdJog5Zn-2" target="Ux-1qo4_dbEG4EfTb58z-7">
          <mxGeometry relative="1" as="geometry">
            <Array as="points">
              <mxPoint x="355" y="158" />
            </Array>
          </mxGeometry>
        </mxCell>
        <mxCell id="f8lgZIH35mIWPdJog5Zn-4" value="Клубный шахматист" style="edgeLabel;html=1;align=center;verticalAlign=middle;resizable=0;points=[];fontSize=16;" vertex="1" connectable="0" parent="f8lgZIH35mIWPdJog5Zn-3">
          <mxGeometry x="0.0365" y="-3" relative="1" as="geometry">
            <mxPoint x="-42" y="9" as="offset" />
          </mxGeometry>
        </mxCell>
        <mxCell id="f8lgZIH35mIWPdJog5Zn-7" style="edgeStyle=orthogonalEdgeStyle;rounded=0;orthogonalLoop=1;jettySize=auto;html=1;" edge="1" parent="Ux-1qo4_dbEG4EfTb58z-4" source="f8lgZIH35mIWPdJog5Zn-9" target="f8lgZIH35mIWPdJog5Zn-2">
          <mxGeometry relative="1" as="geometry">
            <mxPoint x="280" y="60" as="sourcePoint" />
          </mxGeometry>
        </mxCell>
        <mxCell id="f8lgZIH35mIWPdJog5Zn-9" value="Определить тип шахматиста" style="points=[[0.25,0,0],[0.5,0,0],[0.75,0,0],[1,0.25,0],[1,0.5,0],[1,0.75,0],[0.75,1,0],[0.5,1,0],[0.25,1,0],[0,0.75,0],[0,0.5,0],[0,0.25,0]];shape=mxgraph.bpmn.task;whiteSpace=wrap;rectStyle=rounded;size=10;html=1;container=1;expand=0;collapsible=0;taskMarker=abstract;fontSize=16;" vertex="1" parent="Ux-1qo4_dbEG4EfTb58z-4">
          <mxGeometry x="130" y="65" width="140" height="90" as="geometry" />
        </mxCell>
        <mxCell id="f8lgZIH35mIWPdJog5Zn-5" style="edgeStyle=orthogonalEdgeStyle;rounded=0;orthogonalLoop=1;jettySize=auto;html=1;" edge="1" parent="Ux-1qo4_dbEG4EfTb58z-4" source="Ux-1qo4_dbEG4EfTb58z-5" target="f8lgZIH35mIWPdJog5Zn-9">
          <mxGeometry relative="1" as="geometry">
            <mxPoint x="135" y="60" as="targetPoint" />
          </mxGeometry>
        </mxCell>
        <mxCell id="f8lgZIH35mIWPdJog5Zn-15" style="edgeStyle=orthogonalEdgeStyle;rounded=0;orthogonalLoop=1;jettySize=auto;html=1;entryX=0.5;entryY=0;entryDx=0;entryDy=0;entryPerimeter=0;" edge="1" parent="Ux-1qo4_dbEG4EfTb58z-4" source="f8lgZIH35mIWPdJog5Zn-11" target="f8lgZIH35mIWPdJog5Zn-14">
          <mxGeometry relative="1" as="geometry" />
        </mxCell>
        <mxCell id="f8lgZIH35mIWPdJog5Zn-11" value="Переход в каталог поиска шахматистов" style="points=[[0.25,0,0],[0.5,0,0],[0.75,0,0],[1,0.25,0],[1,0.5,0],[1,0.75,0],[0.75,1,0],[0.5,1,0],[0.25,1,0],[0,0.75,0],[0,0.5,0],[0,0.25,0]];shape=mxgraph.bpmn.task;whiteSpace=wrap;rectStyle=rounded;size=10;html=1;container=1;expand=0;collapsible=0;taskMarker=abstract;fontSize=16;" vertex="1" parent="Ux-1qo4_dbEG4EfTb58z-4">
          <mxGeometry x="430" y="10" width="120" height="80" as="geometry" />
        </mxCell>
        <mxCell id="f8lgZIH35mIWPdJog5Zn-10" style="edgeStyle=orthogonalEdgeStyle;rounded=0;orthogonalLoop=1;jettySize=auto;html=1;exitX=0.5;exitY=0;exitDx=0;exitDy=0;exitPerimeter=0;" edge="1" parent="Ux-1qo4_dbEG4EfTb58z-4" source="f8lgZIH35mIWPdJog5Zn-2" target="f8lgZIH35mIWPdJog5Zn-11">
          <mxGeometry relative="1" as="geometry">
            <mxPoint x="430" y="40" as="targetPoint" />
          </mxGeometry>
        </mxCell>
        <mxCell id="f8lgZIH35mIWPdJog5Zn-12" value="Шахматист вне клуба" style="edgeLabel;html=1;align=center;verticalAlign=middle;resizable=0;points=[];fontSize=16;labelBackgroundColor=none;" vertex="1" connectable="0" parent="f8lgZIH35mIWPdJog5Zn-10">
          <mxGeometry x="0.1257" y="1" relative="1" as="geometry">
            <mxPoint x="-52" y="-11" as="offset" />
          </mxGeometry>
        </mxCell>
        <mxCell id="f8lgZIH35mIWPdJog5Zn-16" style="edgeStyle=orthogonalEdgeStyle;rounded=0;orthogonalLoop=1;jettySize=auto;html=1;entryX=0.5;entryY=1;entryDx=0;entryDy=0;entryPerimeter=0;" edge="1" parent="Ux-1qo4_dbEG4EfTb58z-4" source="Ux-1qo4_dbEG4EfTb58z-7" target="f8lgZIH35mIWPdJog5Zn-14">
          <mxGeometry relative="1" as="geometry" />
        </mxCell>
        <mxCell id="Ux-1qo4_dbEG4EfTb58z-11" value="" style="dashed=1;dashPattern=8 4;endArrow=blockThin;endFill=1;startArrow=oval;startFill=0;endSize=6;startSize=4;html=1;rounded=0;fontSize=16;" parent="1" source="Ux-1qo4_dbEG4EfTb58z-10" target="Ux-1qo4_dbEG4EfTb58z-12" edge="1">
          <mxGeometry width="160" relative="1" as="geometry">
            <mxPoint x="320" y="480" as="sourcePoint" />
            <mxPoint x="410" y="420" as="targetPoint" />
          </mxGeometry>
        </mxCell>
        <mxCell id="Ux-1qo4_dbEG4EfTb58z-16" value="" style="shape=mxgraph.bpmn.data;labelPosition=center;verticalLabelPosition=bottom;align=center;verticalAlign=top;size=15;html=1;bpmnTransferType=input;isCollection=1;fontSize=16;" parent="1" vertex="1">
          <mxGeometry x="340" y="330" width="40" height="60" as="geometry" />
        </mxCell>
        <mxCell id="Ux-1qo4_dbEG4EfTb58z-18" value="" style="edgeStyle=elbowEdgeStyle;fontSize=16;html=1;endFill=0;startFill=0;endSize=6;startSize=6;dashed=1;dashPattern=1 4;endArrow=none;startArrow=none;rounded=0;" parent="1" source="Ux-1qo4_dbEG4EfTb58z-44" target="Ux-1qo4_dbEG4EfTb58z-16" edge="1">
          <mxGeometry width="160" relative="1" as="geometry">
            <mxPoint x="560.1304347826087" y="413" as="sourcePoint" />
            <mxPoint x="480" y="530" as="targetPoint" />
          </mxGeometry>
        </mxCell>
        <mxCell id="Ux-1qo4_dbEG4EfTb58z-19" value="Данные участника" style="text;html=1;align=center;verticalAlign=middle;resizable=0;points=[];autosize=1;strokeColor=none;fillColor=none;fontSize=16;" parent="1" vertex="1">
          <mxGeometry x="280" y="300" width="160" height="30" as="geometry" />
        </mxCell>
        <mxCell id="Ux-1qo4_dbEG4EfTb58z-26" value="" style="dashed=1;dashPattern=8 4;endArrow=blockThin;endFill=1;startArrow=oval;startFill=0;endSize=6;startSize=4;html=1;rounded=0;fontSize=16;" parent="1" source="Ux-1qo4_dbEG4EfTb58z-23" edge="1">
          <mxGeometry width="160" relative="1" as="geometry">
            <mxPoint x="610" y="410" as="sourcePoint" />
            <mxPoint x="520" y="630" as="targetPoint" />
          </mxGeometry>
        </mxCell>
      </root>
    </mxGraphModel>
  </diagram>
</mxfile>
